%TF.GenerationSoftware,KiCad,Pcbnew,9.0.4*%
%TF.CreationDate,2025-10-28T22:16:40+05:00*%
%TF.ProjectId,AC_Inverter,41435f49-6e76-4657-9274-65722e6b6963,rev?*%
%TF.SameCoordinates,Original*%
%TF.FileFunction,Soldermask,Bot*%
%TF.FilePolarity,Negative*%
%FSLAX46Y46*%
G04 Gerber Fmt 4.6, Leading zero omitted, Abs format (unit mm)*
G04 Created by KiCad (PCBNEW 9.0.4) date 2025-10-28 22:16:40*
%MOMM*%
%LPD*%
G01*
G04 APERTURE LIST*
G04 Aperture macros list*
%AMRoundRect*
0 Rectangle with rounded corners*
0 $1 Rounding radius*
0 $2 $3 $4 $5 $6 $7 $8 $9 X,Y pos of 4 corners*
0 Add a 4 corners polygon primitive as box body*
4,1,4,$2,$3,$4,$5,$6,$7,$8,$9,$2,$3,0*
0 Add four circle primitives for the rounded corners*
1,1,$1+$1,$2,$3*
1,1,$1+$1,$4,$5*
1,1,$1+$1,$6,$7*
1,1,$1+$1,$8,$9*
0 Add four rect primitives between the rounded corners*
20,1,$1+$1,$2,$3,$4,$5,0*
20,1,$1+$1,$4,$5,$6,$7,0*
20,1,$1+$1,$6,$7,$8,$9,0*
20,1,$1+$1,$8,$9,$2,$3,0*%
G04 Aperture macros list end*
%ADD10RoundRect,0.249999X-1.550001X0.790001X-1.550001X-0.790001X1.550001X-0.790001X1.550001X0.790001X0*%
%ADD11O,3.600000X2.080000*%
%ADD12C,1.512000*%
%ADD13C,3.200000*%
%ADD14R,2.590800X2.590800*%
%ADD15C,2.590800*%
%ADD16C,1.371600*%
%ADD17C,3.327400*%
%ADD18C,1.701800*%
%ADD19C,3.500000*%
%ADD20R,1.905000X2.000000*%
%ADD21O,1.905000X2.000000*%
%ADD22R,3.150000X3.150000*%
%ADD23C,3.150000*%
%ADD24C,3.556000*%
%ADD25C,3.810000*%
%ADD26C,1.794000*%
%ADD27RoundRect,0.102000X0.795000X0.795000X-0.795000X0.795000X-0.795000X-0.795000X0.795000X-0.795000X0*%
%ADD28RoundRect,0.249999X1.550001X-0.790001X1.550001X0.790001X-1.550001X0.790001X-1.550001X-0.790001X0*%
%ADD29RoundRect,0.249999X-0.790001X-1.550001X0.790001X-1.550001X0.790001X1.550001X-0.790001X1.550001X0*%
%ADD30O,2.080000X3.600000*%
%ADD31O,5.500000X3.800000*%
%ADD32O,5.300000X3.800000*%
%ADD33R,1.700000X1.700000*%
%ADD34C,1.700000*%
%ADD35R,2.880000X2.880000*%
%ADD36C,2.880000*%
%ADD37RoundRect,0.249999X-0.850001X0.850001X-0.850001X-0.850001X0.850001X-0.850001X0.850001X0.850001X0*%
%ADD38C,2.200000*%
%ADD39R,1.270000X1.270000*%
%ADD40C,1.270000*%
%ADD41RoundRect,0.250000X-1.350000X1.350000X-1.350000X-1.350000X1.350000X-1.350000X1.350000X1.350000X0*%
%ADD42RoundRect,0.250000X-1.350000X-1.350000X1.350000X-1.350000X1.350000X1.350000X-1.350000X1.350000X0*%
%ADD43R,1.574800X1.574800*%
%ADD44C,1.574800*%
%ADD45RoundRect,5.800000X-8.932000X-8.932000X8.932000X-8.932000X8.932000X8.932000X-8.932000X8.932000X0*%
%ADD46R,1.500000X1.050000*%
%ADD47O,1.500000X1.050000*%
%ADD48RoundRect,0.102000X-0.795000X-0.795000X0.795000X-0.795000X0.795000X0.795000X-0.795000X0.795000X0*%
G04 APERTURE END LIST*
D10*
%TO.C,J1*%
X126492000Y-181864000D03*
D11*
X126492000Y-186944000D03*
%TD*%
D12*
%TO.C,C6*%
X444218000Y-285496000D03*
X440718000Y-285496000D03*
%TD*%
D13*
%TO.C,H5*%
X121920000Y-308356000D03*
%TD*%
D14*
%TO.C,CR1*%
X412424880Y-196088000D03*
D15*
X430276000Y-196088000D03*
%TD*%
D14*
%TO.C,CR4*%
X412932880Y-177292000D03*
D15*
X430784000Y-177292000D03*
%TD*%
D13*
%TO.C,H3*%
X288036000Y-75692000D03*
%TD*%
D16*
%TO.C,C2*%
X184404000Y-241300000D03*
X184404000Y-246300000D03*
%TD*%
D17*
%TO.C,R15*%
X395064000Y-183074000D03*
X395064000Y-193474000D03*
D18*
X385064000Y-184524000D03*
X385064000Y-188274000D03*
X385064000Y-192024000D03*
%TD*%
D19*
%TO.C,Q2*%
X167132000Y-232052000D03*
D20*
X169672000Y-215392000D03*
D21*
X167132000Y-215392000D03*
X164592000Y-215392000D03*
%TD*%
D22*
%TO.C,C23*%
X216328000Y-211328000D03*
D23*
X206328000Y-211328000D03*
%TD*%
D13*
%TO.C,H1*%
X455168000Y-308388000D03*
%TD*%
D24*
%TO.C,U8*%
X314452000Y-180848000D03*
D25*
X314452000Y-187448000D03*
D24*
X314452000Y-193554800D03*
%TD*%
%TO.C,U7*%
X314960000Y-152696000D03*
D25*
X314960000Y-159296000D03*
D24*
X314960000Y-165402800D03*
%TD*%
D22*
%TO.C,C22*%
X215900000Y-183388000D03*
D23*
X205900000Y-183388000D03*
%TD*%
D22*
%TO.C,C15*%
X206836000Y-269240000D03*
D23*
X216836000Y-269240000D03*
%TD*%
D13*
%TO.C,H4*%
X290068000Y-308356000D03*
%TD*%
D24*
%TO.C,U6*%
X271816000Y-256476000D03*
D25*
X271816000Y-249876000D03*
D24*
X271816000Y-243769200D03*
%TD*%
D26*
%TO.C,D5*%
X413004000Y-110236000D03*
D27*
X423364000Y-110236000D03*
%TD*%
D24*
%TO.C,U10*%
X314452000Y-254504000D03*
D25*
X314452000Y-247904000D03*
D24*
X314452000Y-241797200D03*
%TD*%
D14*
%TO.C,CR2*%
X412562080Y-186436000D03*
D15*
X430413200Y-186436000D03*
%TD*%
D22*
%TO.C,C21*%
X215900000Y-154940000D03*
D23*
X205900000Y-154940000D03*
%TD*%
D16*
%TO.C,C8*%
X356188000Y-310896000D03*
X361188000Y-310896000D03*
%TD*%
D28*
%TO.C,J2*%
X448342500Y-196088000D03*
D11*
X448342500Y-191008000D03*
%TD*%
D29*
%TO.C,J3*%
X265679000Y-304578500D03*
D30*
X270759000Y-304578500D03*
%TD*%
D31*
%TO.C,F1*%
X143878000Y-181864000D03*
D32*
X151878000Y-181864000D03*
%TD*%
D13*
%TO.C,H2*%
X455168000Y-75692000D03*
%TD*%
D12*
%TO.C,C7*%
X358648000Y-283246000D03*
X358648000Y-286746000D03*
%TD*%
D33*
%TO.C,EGS002_MODULE1*%
X398780000Y-71628000D03*
D34*
X401320000Y-71628000D03*
X403860000Y-71628000D03*
X406400000Y-71628000D03*
X408940000Y-71628000D03*
X411480000Y-71628000D03*
X414020000Y-71628000D03*
X416560000Y-71628000D03*
X419100000Y-71628000D03*
X421640000Y-71628000D03*
X424180000Y-71628000D03*
X426720000Y-71628000D03*
X429260000Y-71628000D03*
X431800000Y-71628000D03*
X434340000Y-71628000D03*
X436880000Y-71628000D03*
X439420000Y-71628000D03*
%TD*%
D24*
%TO.C,U3*%
X272288000Y-151368000D03*
D25*
X272288000Y-157968000D03*
D24*
X272288000Y-164074800D03*
%TD*%
D35*
%TO.C,R2*%
X167132000Y-181864000D03*
D36*
X177292000Y-181864000D03*
%TD*%
D24*
%TO.C,U9*%
X314416000Y-216472000D03*
D25*
X314416000Y-223072000D03*
D24*
X314416000Y-229178800D03*
%TD*%
D37*
%TO.C,D1*%
X166116000Y-245872000D03*
D38*
X166116000Y-256032000D03*
%TD*%
D39*
%TO.C,C26*%
X365760000Y-191547700D03*
D40*
X365760000Y-184054700D03*
%TD*%
D13*
%TO.C,H6*%
X121920000Y-75692000D03*
%TD*%
D41*
%TO.C,D2*%
X429260000Y-261620000D03*
D13*
X429260000Y-276860000D03*
%TD*%
D10*
%TO.C,J4*%
X126713500Y-122423000D03*
D11*
X126713500Y-127503000D03*
%TD*%
D24*
%TO.C,U5*%
X272084000Y-217610000D03*
D25*
X272084000Y-224210000D03*
D24*
X272084000Y-230316800D03*
%TD*%
D42*
%TO.C,D3*%
X357632000Y-300736000D03*
D13*
X372872000Y-300736000D03*
%TD*%
D24*
%TO.C,U4*%
X272288000Y-192538800D03*
D25*
X272288000Y-185938800D03*
D24*
X272288000Y-179832000D03*
%TD*%
D43*
%TO.C,C5*%
X431800000Y-287020000D03*
D44*
X426796200Y-287020000D03*
%TD*%
D14*
%TO.C,CR3*%
X412424880Y-205740000D03*
D15*
X430276000Y-205740000D03*
%TD*%
D45*
%TO.C,MX14FC1*%
X168640500Y-101556500D03*
X253640500Y-101556500D03*
%TD*%
D38*
%TO.C,IC2*%
X444852000Y-272988000D03*
X443152000Y-270988000D03*
X441452000Y-272988000D03*
X439752000Y-270988000D03*
X438052000Y-272988000D03*
%TD*%
D22*
%TO.C,C24*%
X216916000Y-240284000D03*
D23*
X206916000Y-240284000D03*
%TD*%
D46*
%TO.C,Q1*%
X143256000Y-273812000D03*
D47*
X143256000Y-275082000D03*
X143256000Y-276352000D03*
%TD*%
D26*
%TO.C,D4*%
X432408000Y-90424000D03*
D48*
X422048000Y-90424000D03*
%TD*%
M02*
