M48
; DRILL file {KiCad 9.0.4} date 2025-10-28T22:17:01+0500
; FORMAT={-:-/ absolute / metric / decimal}
; #@! TF.CreationDate,2025-10-28T22:17:01+05:00
; #@! TF.GenerationSoftware,Kicad,Pcbnew,9.0.4
; #@! TF.FileFunction,Plated,1,4,PTH
FMAT,2
METRIC
; #@! TA.AperFunction,Plated,PTH,ViaDrill
T1C0.300
; #@! TA.AperFunction,Plated,PTH,ComponentDrill
T2C0.750
; #@! TA.AperFunction,Plated,PTH,ComponentDrill
T3C0.762
; #@! TA.AperFunction,Plated,PTH,ComponentDrill
T4C0.800
; #@! TA.AperFunction,Plated,PTH,ComponentDrill
T5C0.864
; #@! TA.AperFunction,Plated,PTH,ComponentDrill
T6C1.000
; #@! TA.AperFunction,Plated,PTH,ComponentDrill
T7C1.060
; #@! TA.AperFunction,Plated,PTH,ComponentDrill
T8C1.067
; #@! TA.AperFunction,Plated,PTH,ComponentDrill
T9C1.100
; #@! TA.AperFunction,Plated,PTH,ComponentDrill
T10C1.194
; #@! TA.AperFunction,Plated,PTH,ComponentDrill
T11C1.390
; #@! TA.AperFunction,Plated,PTH,ComponentDrill
T12C1.400
; #@! TA.AperFunction,Plated,PTH,ComponentDrill
T13C1.600
; #@! TA.AperFunction,Plated,PTH,ComponentDrill
T14C1.702
; #@! TA.AperFunction,Plated,PTH,ComponentDrill
T15C1.920
; #@! TA.AperFunction,Plated,PTH,ComponentDrill
T16C2.000
; #@! TA.AperFunction,Plated,PTH,ComponentDrill
T17C2.100
; #@! TA.AperFunction,Plated,PTH,ComponentDrill
T18C2.692
; #@! TA.AperFunction,Plated,PTH,ComponentDrill
T19C3.099
; #@! TA.AperFunction,Plated,PTH,ComponentDrill
T20C15.240
%
G90
G05
T1
X137.668Y-122.936
X164.592Y-210.312
X174.244Y-220.472
X287.528Y-248.51
X290.879Y-194.371
X295.985Y-234.117
X296.866Y-256.772
X299.508Y-173.618
X299.859Y-215.171
X299.859Y-235.973
X300.575Y-235.174
X302.852Y-152.77
X303.239Y-173.643
X306.563Y-174.745
X307.83Y-171.607
X311.832Y-93.34
X316.68Y-235.972
X323.805Y-275.685
X327.028Y-153.312
X327.67Y-178.347
X329.791Y-256.772
X332.784Y-215.171
X335.777Y-235.761
X336.638Y-235.023
X336.74Y-175.768
X338.771Y-289.801
X340.838Y-236.697
X343.858Y-174.035
X353.737Y-120.083
X377.682Y-111.169
X403.773Y-167.627
X406.946Y-84.246
X410.607Y-233.0
X410.969Y-85.753
X416.075Y-84.582
X416.075Y-90.368
X416.075Y-92.178
X422.58Y-182.485
X422.58Y-274.601
X424.118Y-108.919
X425.391Y-114.14
X426.556Y-297.796
X429.415Y-113.835
X429.839Y-108.197
X431.56Y-117.112
X432.53Y-299.159
X444.852Y-278.607
T2
X143.256Y-273.812
X143.256Y-275.082
X143.256Y-276.352
T3
X365.76Y-184.055
X365.76Y-191.548
T4
X358.648Y-283.246
X358.648Y-286.746
X440.718Y-285.496
X444.218Y-285.496
T5
X184.404Y-241.3
X184.404Y-246.3
X356.188Y-310.896
X361.188Y-310.896
T6
X398.78Y-71.628
X401.32Y-71.628
X403.86Y-71.628
X406.4Y-71.628
X408.94Y-71.628
X411.48Y-71.628
X414.02Y-71.628
X416.56Y-71.628
X419.1Y-71.628
X421.64Y-71.628
X424.18Y-71.628
X426.72Y-71.628
X429.26Y-71.628
X431.8Y-71.628
X434.34Y-71.628
X436.88Y-71.628
X439.42Y-71.628
T7
X413.004Y-110.236
X422.048Y-90.424
X423.364Y-110.236
X432.408Y-90.424
T8
X426.796Y-287.02
X431.8Y-287.02
T9
X164.592Y-215.392
X166.116Y-245.872
X166.116Y-256.032
X167.132Y-215.392
X169.672Y-215.392
T10
X385.064Y-184.524
X385.064Y-188.274
X385.064Y-192.024
T11
X438.052Y-272.988
X439.752Y-270.988
X441.452Y-272.988
X443.152Y-270.988
X444.852Y-272.988
T12
X126.492Y-181.864
X126.492Y-186.944
X126.713Y-122.423
X126.713Y-127.503
X265.679Y-304.578
X270.759Y-304.578
X448.342Y-191.008
X448.342Y-196.088
T13
X357.632Y-300.736
X372.872Y-300.736
X429.26Y-261.62
X429.26Y-276.86
T14
X412.425Y-196.088
X412.425Y-205.74
X412.562Y-186.436
X412.933Y-177.292
X430.276Y-196.088
X430.276Y-205.74
X430.413Y-186.436
X430.784Y-177.292
T15
X167.132Y-181.864
X177.292Y-181.864
T17
X205.9Y-154.94
X205.9Y-183.388
X206.328Y-211.328
X206.836Y-269.24
X206.916Y-240.284
X215.9Y-154.94
X215.9Y-183.388
X216.328Y-211.328
X216.836Y-269.24
X216.916Y-240.284
T18
X271.816Y-243.769
X271.816Y-256.476
X272.084Y-217.61
X272.084Y-230.317
X272.288Y-151.368
X272.288Y-164.075
X272.288Y-179.832
X272.288Y-192.539
X314.416Y-216.472
X314.416Y-229.179
X314.452Y-180.848
X314.452Y-193.555
X314.452Y-241.797
X314.452Y-254.504
X314.96Y-152.696
X314.96Y-165.403
T19
X271.816Y-249.876
X272.084Y-224.21
X272.288Y-157.968
X272.288Y-185.939
X314.416Y-223.072
X314.452Y-187.448
X314.452Y-247.904
X314.96Y-159.296
T20
X168.641Y-101.556
X253.64Y-101.556
T16
G00X143.128Y-181.864
M15
G01X144.628Y-181.864
M16
G05
G00X151.128Y-181.864
M15
G01X152.628Y-181.864
M16
G05
M30
