%TF.GenerationSoftware,KiCad,Pcbnew,9.0.4*%
%TF.CreationDate,2025-10-28T22:16:39+05:00*%
%TF.ProjectId,AC_Inverter,41435f49-6e76-4657-9274-65722e6b6963,rev?*%
%TF.SameCoordinates,Original*%
%TF.FileFunction,Paste,Top*%
%TF.FilePolarity,Positive*%
%FSLAX46Y46*%
G04 Gerber Fmt 4.6, Leading zero omitted, Abs format (unit mm)*
G04 Created by KiCad (PCBNEW 9.0.4) date 2025-10-28 22:16:39*
%MOMM*%
%LPD*%
G01*
G04 APERTURE LIST*
G04 Aperture macros list*
%AMRoundRect*
0 Rectangle with rounded corners*
0 $1 Rounding radius*
0 $2 $3 $4 $5 $6 $7 $8 $9 X,Y pos of 4 corners*
0 Add a 4 corners polygon primitive as box body*
4,1,4,$2,$3,$4,$5,$6,$7,$8,$9,$2,$3,0*
0 Add four circle primitives for the rounded corners*
1,1,$1+$1,$2,$3*
1,1,$1+$1,$4,$5*
1,1,$1+$1,$6,$7*
1,1,$1+$1,$8,$9*
0 Add four rect primitives between the rounded corners*
20,1,$1+$1,$2,$3,$4,$5,0*
20,1,$1+$1,$4,$5,$6,$7,0*
20,1,$1+$1,$6,$7,$8,$9,0*
20,1,$1+$1,$8,$9,$2,$3,0*%
G04 Aperture macros list end*
%ADD10RoundRect,0.140000X0.170000X-0.140000X0.170000X0.140000X-0.170000X0.140000X-0.170000X-0.140000X0*%
%ADD11RoundRect,0.225000X-0.250000X0.225000X-0.250000X-0.225000X0.250000X-0.225000X0.250000X0.225000X0*%
%ADD12RoundRect,0.250000X0.650000X-1.000000X0.650000X1.000000X-0.650000X1.000000X-0.650000X-1.000000X0*%
%ADD13R,0.540000X0.600000*%
%ADD14RoundRect,0.248780X0.261220X0.451220X-0.261220X0.451220X-0.261220X-0.451220X0.261220X-0.451220X0*%
%ADD15RoundRect,0.200000X-0.200000X-0.275000X0.200000X-0.275000X0.200000X0.275000X-0.200000X0.275000X0*%
%ADD16R,1.525000X0.700000*%
%ADD17RoundRect,0.140000X-0.140000X-0.170000X0.140000X-0.170000X0.140000X0.170000X-0.140000X0.170000X0*%
%ADD18R,2.160000X1.020000*%
%ADD19R,6.990000X8.330000*%
%ADD20R,1.910000X1.235000*%
%ADD21RoundRect,0.140000X-0.170000X0.140000X-0.170000X-0.140000X0.170000X-0.140000X0.170000X0.140000X0*%
%ADD22R,2.794000X5.308600*%
%ADD23RoundRect,0.075000X0.955000X0.225000X-0.955000X0.225000X-0.955000X-0.225000X0.955000X-0.225000X0*%
%ADD24RoundRect,0.250000X1.000000X-1.400000X1.000000X1.400000X-1.000000X1.400000X-1.000000X-1.400000X0*%
%ADD25RoundRect,0.250000X-0.650000X1.000000X-0.650000X-1.000000X0.650000X-1.000000X0.650000X1.000000X0*%
%ADD26RoundRect,0.248780X-0.451220X0.261220X-0.451220X-0.261220X0.451220X-0.261220X0.451220X0.261220X0*%
%ADD27RoundRect,0.220000X0.220000X0.380000X-0.220000X0.380000X-0.220000X-0.380000X0.220000X-0.380000X0*%
%ADD28RoundRect,0.225000X0.250000X-0.225000X0.250000X0.225000X-0.250000X0.225000X-0.250000X-0.225000X0*%
%ADD29RoundRect,0.248780X0.451220X-0.261220X0.451220X0.261220X-0.451220X0.261220X-0.451220X-0.261220X0*%
%ADD30RoundRect,0.140000X0.140000X0.170000X-0.140000X0.170000X-0.140000X-0.170000X0.140000X-0.170000X0*%
%ADD31RoundRect,0.147500X-0.147500X-0.172500X0.147500X-0.172500X0.147500X0.172500X-0.147500X0.172500X0*%
%ADD32RoundRect,0.075000X-0.955000X-0.225000X0.955000X-0.225000X0.955000X0.225000X-0.955000X0.225000X0*%
%ADD33RoundRect,0.250000X1.000000X0.650000X-1.000000X0.650000X-1.000000X-0.650000X1.000000X-0.650000X0*%
G04 APERTURE END LIST*
D10*
%TO.C,R14*%
X326644000Y-245348000D03*
X326644000Y-244348000D03*
%TD*%
D11*
%TO.C,C18*%
X305308000Y-173192000D03*
X305308000Y-174752000D03*
%TD*%
D12*
%TO.C,D7*%
X260096000Y-208248000D03*
X260096000Y-204248000D03*
%TD*%
D13*
%TO.C,RT1*%
X434264000Y-78232000D03*
X433400000Y-78232000D03*
%TD*%
D10*
%TO.C,R19*%
X288544000Y-183880000D03*
X288544000Y-182880000D03*
%TD*%
D12*
%TO.C,D8*%
X343916000Y-206756000D03*
X343916000Y-202756000D03*
%TD*%
D14*
%TO.C,R23*%
X400706000Y-76708000D03*
X398886000Y-76708000D03*
%TD*%
D15*
%TO.C,R8*%
X325004000Y-178308000D03*
X326644000Y-178308000D03*
%TD*%
D16*
%TO.C,IC4*%
X297363000Y-234099000D03*
X297363000Y-235369000D03*
X297363000Y-236639000D03*
X297363000Y-237909000D03*
X302787000Y-237909000D03*
X302787000Y-236639000D03*
X302787000Y-235369000D03*
X302787000Y-234099000D03*
%TD*%
D10*
%TO.C,R17*%
X287528000Y-247396000D03*
X287528000Y-246396000D03*
%TD*%
D17*
%TO.C,C9*%
X422672000Y-106680000D03*
X423672000Y-106680000D03*
%TD*%
%TO.C,C12*%
X421648000Y-94996000D03*
X422648000Y-94996000D03*
%TD*%
D16*
%TO.C,IC3*%
X301416000Y-175641000D03*
X301416000Y-174371000D03*
X301416000Y-173101000D03*
X301416000Y-171831000D03*
X295992000Y-171831000D03*
X295992000Y-173101000D03*
X295992000Y-174371000D03*
X295992000Y-175641000D03*
%TD*%
D18*
%TO.C,IC1*%
X372533000Y-284128000D03*
X372533000Y-285828000D03*
X372533000Y-287528000D03*
X372533000Y-289228000D03*
X372533000Y-290928000D03*
D19*
X380194000Y-287728000D03*
D20*
X385748000Y-292310500D03*
X385748000Y-282745500D03*
%TD*%
D21*
%TO.C,R18*%
X287528000Y-225568000D03*
X287528000Y-226568000D03*
%TD*%
D17*
%TO.C,C13*%
X422664000Y-116840000D03*
X423664000Y-116840000D03*
%TD*%
D15*
%TO.C,R6*%
X325512000Y-255524000D03*
X327152000Y-255524000D03*
%TD*%
D22*
%TO.C,L2*%
X339420200Y-286004000D03*
X349504000Y-286004000D03*
%TD*%
D21*
%TO.C,R12*%
X326136000Y-187976000D03*
X326136000Y-188976000D03*
%TD*%
%TO.C,R1*%
X167132000Y-195588000D03*
X167132000Y-196588000D03*
%TD*%
D23*
%TO.C,U2*%
X437016000Y-116586000D03*
X437016000Y-115316000D03*
X437016000Y-114046000D03*
X437016000Y-112776000D03*
X437016000Y-111506000D03*
X437016000Y-110236000D03*
X437016000Y-108966000D03*
X437016000Y-107696000D03*
X427736000Y-107696000D03*
X427736000Y-108966000D03*
X427736000Y-110236000D03*
X427736000Y-111506000D03*
X427736000Y-112776000D03*
X427736000Y-114046000D03*
X427736000Y-115316000D03*
X427736000Y-116586000D03*
%TD*%
D16*
%TO.C,IC5*%
X340868000Y-175768000D03*
X340868000Y-174498000D03*
X340868000Y-173228000D03*
X340868000Y-171958000D03*
X335444000Y-171958000D03*
X335444000Y-173228000D03*
X335444000Y-174498000D03*
X335444000Y-175768000D03*
%TD*%
D17*
%TO.C,C11*%
X421648000Y-92964000D03*
X422648000Y-92964000D03*
%TD*%
D15*
%TO.C,R4*%
X286904000Y-216408000D03*
X288544000Y-216408000D03*
%TD*%
D24*
%TO.C,D6*%
X135284000Y-203200000D03*
X142084000Y-203200000D03*
%TD*%
D25*
%TO.C,D9*%
X372364000Y-308420000D03*
X372364000Y-312420000D03*
%TD*%
D15*
%TO.C,R7*%
X326020000Y-216408000D03*
X327660000Y-216408000D03*
%TD*%
D17*
%TO.C,C14*%
X422672000Y-119380000D03*
X423672000Y-119380000D03*
%TD*%
D26*
%TO.C,R20*%
X405384000Y-193760000D03*
X405384000Y-195580000D03*
%TD*%
D15*
%TO.C,R9*%
X325512000Y-151892000D03*
X327152000Y-151892000D03*
%TD*%
%TO.C,R3*%
X286904000Y-193548000D03*
X288544000Y-193548000D03*
%TD*%
%TO.C,R16*%
X287412000Y-151892000D03*
X289052000Y-151892000D03*
%TD*%
D10*
%TO.C,R11*%
X326136000Y-162036000D03*
X326136000Y-161036000D03*
%TD*%
D17*
%TO.C,C20*%
X433324000Y-80772000D03*
X434324000Y-80772000D03*
%TD*%
D27*
%TO.C,L1*%
X442512000Y-266700000D03*
X440392000Y-266700000D03*
%TD*%
D28*
%TO.C,C17*%
X306324000Y-237236000D03*
X306324000Y-235676000D03*
%TD*%
D29*
%TO.C,R21*%
X404876000Y-178710000D03*
X404876000Y-176890000D03*
%TD*%
D11*
%TO.C,C1*%
X344932000Y-172684000D03*
X344932000Y-174244000D03*
%TD*%
D30*
%TO.C,C3*%
X443476000Y-278384000D03*
X442476000Y-278384000D03*
%TD*%
D16*
%TO.C,IC6*%
X333412000Y-233426000D03*
X333412000Y-234696000D03*
X333412000Y-235966000D03*
X333412000Y-237236000D03*
X338836000Y-237236000D03*
X338836000Y-235966000D03*
X338836000Y-234696000D03*
X338836000Y-233426000D03*
%TD*%
D17*
%TO.C,C25*%
X399296000Y-79248000D03*
X400296000Y-79248000D03*
%TD*%
D28*
%TO.C,C16*%
X341884000Y-236256000D03*
X341884000Y-234696000D03*
%TD*%
D31*
%TO.C,F2*%
X437942000Y-196088000D03*
X438912000Y-196088000D03*
%TD*%
D21*
%TO.C,C4*%
X365252000Y-284496000D03*
X365252000Y-285496000D03*
%TD*%
%TO.C,R13*%
X326644000Y-226076000D03*
X326644000Y-227076000D03*
%TD*%
%TO.C,R10*%
X288544000Y-162068000D03*
X288544000Y-163068000D03*
%TD*%
D15*
%TO.C,R5*%
X286708000Y-257048000D03*
X288348000Y-257048000D03*
%TD*%
D17*
%TO.C,C10*%
X421648000Y-97028000D03*
X422648000Y-97028000D03*
%TD*%
D32*
%TO.C,U1*%
X408804000Y-84582000D03*
X408804000Y-85852000D03*
X408804000Y-87122000D03*
X408804000Y-88392000D03*
X408804000Y-89662000D03*
X408804000Y-90932000D03*
X408804000Y-92202000D03*
X408804000Y-93472000D03*
X418084000Y-93472000D03*
X418084000Y-92202000D03*
X418084000Y-90932000D03*
X418084000Y-89662000D03*
X418084000Y-88392000D03*
X418084000Y-87122000D03*
X418084000Y-85852000D03*
X418084000Y-84582000D03*
%TD*%
D33*
%TO.C,D10*%
X430752000Y-299212000D03*
X426752000Y-299212000D03*
%TD*%
D17*
%TO.C,R22*%
X433340000Y-75692000D03*
X434340000Y-75692000D03*
%TD*%
M02*
